<?xml version="1.0" encoding="UTF-8"?>
<svg id="Layer_1" data-name="Layer 1" xmlns="http://www.w3.org/2000/svg" version="1.1" viewBox="0 0 360 360">
  <defs>
    <style>
      .cls-1 {
        fill: #fff;
        stroke-width: 0px;
      }
    </style>
  </defs>
  <g id="z9Pxnf.tif">
    <g>
      <path class="cls-1" d="M130.56,102.57c32.64,0,65.28,0,97.92,0,1.3.24,2.61.42,3.89.72,11.04,2.54,19.39,12.36,19.98,23.66.2,3.79.08,7.59.1,11.39,0,.14-.06.27-.1.47h-1.25c-31.55,0-63.09,0-94.64,0-.35,0-.71-.01-1.06.01-2.03.14-3.63,1.63-3.8,3.53-.19,2.06.99,3.81,2.99,4.3.65.16,1.34.16,2.02.16,35.79,0,71.58,0,107.37,0,.47,0,.94,0,1.41.04,1.63.15,2.79.99,3.56,2.42.1.19.18.4.27.6.06-.01.12-.02.18-.03v-1.01c0-12.3.05-24.61-.03-36.91-.02-3.15,1.94-5.32,5.24-5.2,3.91.14,7.83.03,11.75.03,14.29,0,28.57,0,42.86,0,2.63,0,3.96.92,4.85,3.37.03.08.08.15.12.23v143.07c-.9,2.69-2.82,3.57-5.57,3.56-18-.06-35.99-.03-53.99-.03-.35,0-.71.02-1.06-.01-1.87-.18-3.23-1.12-3.86-2.89-.26-.73-.3-1.56-.3-2.34-.01-30.79-.01-61.58-.01-92.37v-1.39H106.55v-.81c0-9.51,0-19.02,0-28.52,0-1,.06-2,.18-2.99,1.34-10.81,9.02-19.55,19.58-22.24,1.39-.35,2.82-.54,4.23-.8Z"/>
      <path class="cls-1" d="M89.84,209.67c0,.35,0,.7,0,1.05,0,13.78,0,27.55,0,41.33,0,2.55-1.3,4.3-3.56,4.8-.28.06-.58.09-.87.09-7.19,0-14.37,0-21.56,0-.16,0-.33-.02-.54-.03,1.07-1.27,1.13-1.99.22-3.34-.38-.55-.84-1.07-1.33-1.53-2.57-2.43-5.14-4.85-7.74-7.24-.89-.82-1.38-1.78-1.51-2.99-.09-.78-.2-1.61-.53-2.31-.9-1.91-.87-3.82-.5-5.85.68-3.82.5-7.68.27-11.54-.09-1.5-.2-2.99-.39-4.48-.2-1.61-.85-3.07-1.84-4.34-1.3-1.66-1.98-3.58-2.65-5.53-1.17-3.38-2.3-6.8-3.72-10.08-.86-1.97-2.12-3.8-3.42-5.52-2.01-2.66-3.46-5.46-3.88-8.84-.48-3.91-2.13-7.33-5.05-10.05-1.26-1.18-1.91-2.57-1.98-4.27-.03-.85-.05-1.72-.2-2.55-.21-1.11.06-1.99.84-2.8.65-.68,1.23-1.43,1.78-2.2.5-.7,1.01-.83,1.8-.43,2.7,1.36,5.44,2.66,8.16,4.01,2.17,1.08,4.22,1.01,6.39-.18,3.51-1.92,7.14-3.6,10.66-5.51,2.14-1.16,4.16-2.55,6.3-3.87.1.15.26.38.42.61.63.91,1.23.96,2.01.15.18-.19.35-.4.53-.59,1.07-1.1,1.61-1.17,2.93-.39,3.53,2.1,6.98.81,8.3-3.06.43-1.25.56-2.47.08-3.7-.61-1.58-1.09-3.25-1.93-4.7-1.52-2.59-3.72-3.17-6.31-1.66-1.56.91-2.94,2.14-4.36,3.28-1.17.95-2.26,1.97-3.82,2.26-.26.05-.49.54-.63.87-.1.22-.02.51-.02.84-2.12.64-4.23,1.28-6.33,1.92-3.57,1.08-7.02,2.39-9.94,4.8-.21.17-.85.15-1.05-.04-1.55-1.42-3.04-2.91-4.68-4.5,1.03-.68,1.36-1.88,2.69-1.6.2.04.51-.25.72-.45.71-.66,1.42-1.33,2.1-2.02,1.4-1.42,2.91-2.62,4.83-3.3,1.6-.56,2.71-1.84,3.82-3.06.6-.66.7-1.48.22-2.21-1.3-1.99-2.61-3.99-4.03-5.89-.89-1.19-2.23-1.51-3.72-1.42-.67.04-1.41-.06-2.04-.29-1.83-.67-3.29-.07-3.43,1.87-.28,3.69-2.01,6.84-3.32,10.16-.17.44-.14.95-.24,1.42-.04.18-.13.41-.28.49-.13.07-.4.02-.52-.08-1-.77-2-1.55-2.96-2.38-.15-.13-.14-.5-.11-.74.14-1.16.5-2.32.44-3.46-.09-1.97-1.19-3.5-2.77-4.61-1.39-.98-2.87-1.82-4.35-2.75.42-.45,1.03-.35,1.6-.19.73.21,1.42.57,2.16.76.76.2,1.55.36,2.33.39,1.09.04,1.83-.41,2.47-1.44.8-1.3,1.4-2.62,1.79-4.07.06-.22.34-.49.56-.54.72-.16.89-.58.74-1.23-.1-.46-.18-.92-.29-1.38-.28-1.09-.04-1.99.81-2.8.38-.36.68-.99.7-1.51.07-1.7.16-3.43-.07-5.11-.48-3.55-2.73-5.67-6.03-6.79-.49-.17-.99-.28-1.46-.61h.92c17.14,0,34.29,0,51.43,0,3.26,0,5,1.75,5,5.02,0,29.44,0,58.87,0,88.31,0,.44,0,.88,0,1.46.49,0,.91,0,1.34,0,53.34,0,106.69,0,160.03,0,1.63,0,1.42-.21,1.42,1.39,0,9.3.1,18.61-.02,27.91-.13,9.57-4.34,17.01-12.38,22.19-4.1,2.64-8.67,3.91-13.56,3.91-31.31.01-62.62.01-93.93,0-12.88,0-24.09-9.72-25.65-22.5-.48-3.89-.25-7.87-.34-11.81-.01-.61,0-1.22,0-1.92.48,0,.86,0,1.23,0,31.64,0,63.27,0,94.91,0,.67,0,1.37-.04,2-.23,1.83-.54,2.92-2.27,2.75-4.23-.15-1.73-1.57-3.21-3.37-3.47-.52-.08-1.06-.08-1.59-.08-35.82,0-71.64,0-107.45-.01-.73,0-1.49-.02-2.19-.19-1.5-.38-2.46-1.41-3.2-2.82Z"/>
      <path class="cls-1" d="M25.23,207.3c.96,1.48,1.95,2.94,2.88,4.43.65,1.05,1.55,1.45,2.76,1.29,1.2-.16,2.4-.24,3.6-.39.64-.08,1.12.12,1.54.62,1.64,1.93,3.3,3.84,4.98,5.73.94,1.06,1.25,2.22,1.06,3.65-.27,2.06-.36,4.15-.4,6.23-.01.63.27,1.33.6,1.9,2.71,4.77,3.23,9.88,2.51,15.2-.1.73-.23,1.45-.34,2.18-.31,1.9.27,3.08,2.06,3.93,3.08,1.46,6.18,2.88,9.27,4.32.26.12.52.25.76.51-.21.01-.43.03-.64.03-8.74,0-17.49,0-26.23,0-2.68,0-4.59-1.89-4.59-4.53,0-14.83,0-29.66,0-44.49,0-.2,0-.39,0-.59.06,0,.12-.02.18-.02Z"/>
    </g>
  </g>
  <g>
    <polygon class="cls-1" points="104.09 177.72 99.47 177.72 99.47 171.01 95.99 171.01 95.99 188.61 99.47 188.61 99.47 181.02 104.09 181.02 104.09 188.61 107.57 188.61 107.57 171.01 104.09 171.01 104.09 177.72"/>
    <polygon class="cls-1" points="151.92 171.04 148.44 171.04 148.44 188.64 150.99 188.64 151.92 188.64 156.99 188.64 156.99 185.34 151.92 185.34 151.92 171.04"/>
    <rect class="cls-1" x="213.92" y="171.01" width="3.48" height="17.6"/>
    <rect class="cls-1" x="232.86" y="171.01" width="3.48" height="17.6"/>
    <polygon class="cls-1" points="246.37 182.28 242.66 171.01 241.66 171.01 238.18 171.01 238.18 188.61 241.66 188.61 241.66 178.1 245.02 188.61 246.37 188.61 248.45 188.61 249.56 188.61 249.56 171.01 246.37 171.01 246.37 182.28"/>
    <polygon class="cls-1" points="117.42 185.34 112.78 185.34 112.78 171.04 109.3 171.04 109.3 186.08 111.92 188.64 112.09 188.64 112.78 188.64 117.42 188.64 118.08 188.64 118.28 188.64 120.9 186.08 120.9 171.04 117.42 171.04 117.42 185.34"/>
    <polygon class="cls-1" points="139.48 171.01 136.02 171.01 136.02 174.31 139.48 174.31 139.48 188.61 142.96 188.61 142.96 174.31 146.42 174.31 146.42 171.01 142.96 171.01 139.48 171.01"/>
    <polygon class="cls-1" points="192.01 171.01 188.55 171.01 188.55 174.31 192.01 174.31 192.01 188.61 195.49 188.61 195.49 174.31 198.95 174.31 198.95 171.01 195.49 171.01 192.01 171.01"/>
    <polygon class="cls-1" points="161.62 171.04 158.71 171.04 158.71 188.64 161.62 188.64 162.19 188.64 167.61 188.64 167.61 185.34 162.19 185.34 162.19 181.18 167.61 181.18 167.61 177.88 162.19 177.88 162.19 174.34 167.61 174.34 167.61 171.04 162.19 171.04 161.62 171.04"/>
    <polygon class="cls-1" points="131.29 171.01 130.72 171.01 126 171.01 125.29 171.01 125.1 171.01 122.64 173.59 122.64 175.72 122.64 176.02 122.64 178.71 125.1 181.28 125.29 181.28 126 181.28 130.72 181.28 130.72 183.63 130.72 183.89 130.72 185.34 126 185.34 126 183.63 122.64 183.63 122.64 186.06 125.1 188.64 125.29 188.64 126 188.64 130.72 188.64 131.29 188.64 131.62 188.64 134.08 186.06 134.08 183.89 134.08 183.63 134.08 180.56 131.62 177.98 131.29 177.98 130.72 177.98 126 177.98 126 176.02 126 175.72 126 174.31 130.72 174.31 130.72 176.02 134.08 176.02 134.08 173.59 131.62 171.01 131.29 171.01"/>
    <polygon class="cls-1" points="183.75 171.01 183.19 171.01 178.46 171.01 177.76 171.01 177.57 171.01 175.11 173.59 175.11 175.72 175.11 176.02 175.11 178.71 177.57 181.28 177.76 181.28 178.46 181.28 183.19 181.28 183.19 183.63 183.19 183.89 183.19 185.34 178.46 185.34 178.46 183.63 175.11 183.63 175.11 186.06 177.57 188.64 177.76 188.64 178.46 188.64 183.19 188.64 183.75 188.64 184.08 188.64 186.54 186.06 186.54 183.89 186.54 183.63 186.54 180.56 184.08 177.98 183.75 177.98 183.19 177.98 178.46 177.98 178.46 176.02 178.46 175.72 178.46 174.31 183.19 174.31 183.19 176.02 186.54 176.02 186.54 173.59 184.08 171.01 183.75 171.01"/>
    <polygon class="cls-1" points="262.96 175.72 262.96 173.59 260.5 171.01 260.17 171.01 259.6 171.01 255 171.01 254.17 171.01 254.15 171.01 251.52 173.57 251.52 175.42 251.52 184.23 251.52 186.08 254.15 188.64 255 188.64 255 188.61 259.6 188.61 260.17 188.61 260.5 188.61 262.96 186.03 262.96 181.38 262.96 178.08 258.01 178.08 258.01 181.38 259.6 181.38 259.6 185.31 255 185.31 255 184.23 255 175.42 255 174.31 259.6 174.31 259.6 175.72 262.96 175.72"/>
    <path class="cls-1" d="M209.5,171.01h-8.54v17.6h3.48v-6.55h4.35v6.55h3.36v-7.42l-.82-.85.82-.85v-5.89l-2.46-2.58h-.19ZM208.8,176.02v2.74h-4.35v-4.45h4.35v1.71Z"/>
    <polygon class="cls-1" points="230.42 171.01 226.66 171.01 222.85 178.68 222.85 171.01 219.37 171.01 219.37 188.61 222.85 188.61 222.85 180.36 227.49 188.61 231.25 188.61 226.17 179.57 230.42 171.01"/>
  </g>
</svg>